<svg width="664" height="365" viewBox="0 0 664 365" fill="none" xmlns="http://www.w3.org/2000/svg">
<path d="M541.203 155.433L606.865 133.161L571.936 241.104L536.57 350.399L493.488 336.437L513.881 273.414L534.738 208.958L535.648 206.145L532.886 207.082L471.131 228.029L531.637 14.8963L575.227 27.1828L539.335 153.612L538.564 156.329L541.203 155.433Z" fill="url(#paint0_linear_504_1714)" stroke="black" stroke-width="3"/>
<mask id="path-2-inside-1_504_1714" fill="white">
<path fill-rule="evenodd" clip-rule="evenodd" d="M489.337 93.5512L463.294 191.098L444.586 124.169L393.44 307.385H377.961H355.242H333.023L264.616 23.5234H334.021L369.348 208.212L418.655 23.5234H425.396H464.342H470.584L489.337 93.5512Z"/>
</mask>
<path fill-rule="evenodd" clip-rule="evenodd" d="M489.337 93.5512L463.294 191.098L444.586 124.169L393.44 307.385H377.961H355.242H333.023L264.616 23.5234H334.021L369.348 208.212L418.655 23.5234H425.396H464.342H470.584L489.337 93.5512Z" fill="white"/>
<path d="M463.294 191.098L460.887 191.771L463.35 200.582L465.71 191.743L463.294 191.098ZM489.337 93.5512L491.752 94.196L491.925 93.5502L491.752 92.9045L489.337 93.5512ZM444.586 124.169L446.994 123.496L444.585 114.877L442.178 123.497L444.586 124.169ZM393.44 307.385V309.885H395.337L395.848 308.057L393.44 307.385ZM333.023 307.385L330.592 307.971L331.053 309.885H333.023V307.385ZM264.616 23.5234V21.0234H261.442L262.186 24.1091L264.616 23.5234ZM334.021 23.5234L336.477 23.0537L336.088 21.0234H334.021V23.5234ZM369.348 208.212L366.892 208.682L371.763 208.857L369.348 208.212ZM418.655 23.5234V21.0234H416.735L416.24 22.8786L418.655 23.5234ZM470.584 23.5234L472.999 22.8767L472.503 21.0234H470.584V23.5234ZM465.71 191.743L491.752 94.196L486.922 92.9063L460.879 190.453L465.71 191.743ZM442.178 124.842L460.887 191.771L465.702 190.425L446.994 123.496L442.178 124.842ZM395.848 308.057L446.994 124.842L442.178 123.497L391.032 306.713L395.848 308.057ZM377.961 309.885H393.44V304.885H377.961V309.885ZM355.242 309.885H377.961V304.885H355.242V309.885ZM333.023 309.885H355.242V304.885H333.023V309.885ZM262.186 24.1091L330.592 307.971L335.453 306.799L267.047 22.9377L262.186 24.1091ZM334.021 21.0234H264.616V26.0234H334.021V21.0234ZM371.803 207.742L336.477 23.0537L331.566 23.9931L366.892 208.682L371.803 207.742ZM416.24 22.8786L366.932 207.567L371.763 208.857L421.071 24.1683L416.24 22.8786ZM425.396 21.0234H418.655V26.0234H425.396V21.0234ZM464.342 21.0234H425.396V26.0234H464.342V21.0234ZM470.584 21.0234H464.342V26.0234H470.584V21.0234ZM491.752 92.9045L472.999 22.8767L468.169 24.1701L486.922 94.1979L491.752 92.9045Z" fill="black" fill-opacity="0.96" mask="url(#path-2-inside-1_504_1714)"/>
<mask id="path-4-inside-2_504_1714" fill="white">
<path fill-rule="evenodd" clip-rule="evenodd" d="M270.72 122.055L302.991 255.969L290.544 307.902H268.653H246.017H230.345L179.318 124.353L128.357 307.902H112.934H90.2974H68.1584L0 23.5234H69.1534L104.352 208.549L153.481 23.5234H160.197H199.003H205.221L254.447 208.349L270.72 122.055Z"/>
</mask>
<path fill-rule="evenodd" clip-rule="evenodd" d="M270.72 122.055L302.991 255.969L290.544 307.902H268.653H246.017H230.345L179.318 124.353L128.357 307.902H112.934H90.2974H68.1584L0 23.5234H69.1534L104.352 208.549L153.481 23.5234H160.197H199.003H205.221L254.447 208.349L270.72 122.055Z" fill="#333232"/>
<path d="M302.991 255.969L305.422 256.551L305.562 255.967L305.421 255.383L302.991 255.969ZM270.72 122.055L273.15 121.469L268.263 121.592L270.72 122.055ZM290.544 307.902V310.402H292.515L292.975 308.485L290.544 307.902ZM230.345 307.902L227.937 308.572L228.446 310.402H230.345V307.902ZM179.318 124.353L181.726 123.683L179.316 115.013L176.909 123.684L179.318 124.353ZM128.357 307.902V310.402H130.257L130.766 308.571L128.357 307.902ZM68.1584 307.902L65.7272 308.485L66.1868 310.402H68.1584V307.902ZM0 23.5234V21.0234H-3.16999L-2.43115 24.1061L0 23.5234ZM69.1534 23.5234L71.6093 23.0562L71.2226 21.0234H69.1534V23.5234ZM104.352 208.549L101.896 209.016L106.768 209.19L104.352 208.549ZM153.481 23.5234V21.0234H151.558L151.064 22.8818L153.481 23.5234ZM205.221 23.5234L207.637 22.88L207.143 21.0234H205.221V23.5234ZM254.447 208.349L252.032 208.992L256.904 208.812L254.447 208.349ZM305.421 255.383L273.15 121.469L268.289 122.641L300.56 256.554L305.421 255.383ZM292.975 308.485L305.422 256.551L300.56 255.386L288.113 307.32L292.975 308.485ZM268.653 310.402H290.544V305.402H268.653V310.402ZM246.017 310.402H268.653V305.402H246.017V310.402ZM230.345 310.402H246.017V305.402H230.345V310.402ZM176.909 125.022L227.937 308.572L232.754 307.233L181.726 123.683L176.909 125.022ZM130.766 308.571L181.727 125.022L176.909 123.684L125.948 307.233L130.766 308.571ZM112.934 310.402H128.357V305.402H112.934V310.402ZM90.2974 310.402H112.934V305.402H90.2974V310.402ZM68.1584 310.402H90.2974V305.402H68.1584V310.402ZM-2.43115 24.1061L65.7272 308.485L70.5895 307.32L2.43115 22.9407L-2.43115 24.1061ZM69.1534 21.0234H0V26.0234H69.1534V21.0234ZM106.808 208.081L71.6093 23.0562L66.6974 23.9906L101.896 209.016L106.808 208.081ZM151.064 22.8818L101.935 207.907L106.768 209.19L155.897 24.165L151.064 22.8818ZM160.197 21.0234H153.481V26.0234H160.197V21.0234ZM199.003 21.0234H160.197V26.0234H199.003V21.0234ZM205.221 21.0234H199.003V26.0234H205.221V21.0234ZM256.863 207.705L207.637 22.88L202.806 24.1668L252.032 208.992L256.863 207.705ZM268.263 121.592L251.991 207.886L256.904 208.812L273.177 122.518L268.263 121.592Z" fill="white" mask="url(#path-4-inside-2_504_1714)"/>
<defs>
<linearGradient id="paint0_linear_504_1714" x1="487.086" y1="27.8017" x2="591.001" y2="334.158" gradientUnits="userSpaceOnUse">
<stop stop-color="#F5BD52"/>
<stop offset="1" stop-color="#F5DA79"/>
</linearGradient>
</defs>
</svg>
